HIERARCHY
ROOT Hips
{
 OFFSET 0.000000 0.000000 0.000000
 CHANNELS 6 Xposition Yposition Zposition Yrotation Xrotation Zrotation
 JOINT Chest
 {
  OFFSET 0.000000 9.588913 -0.003946
  CHANNELS 3 Yrotation Xrotation Zrotation
  JOINT Chest2
  {
   OFFSET 0.000000 9.541882 0.008053
   CHANNELS 3 Yrotation Xrotation Zrotation
   JOINT Chest3
   {
    OFFSET 0.000000 9.501360 0.000000
    CHANNELS 3 Yrotation Xrotation Zrotation
    JOINT Chest4
    {
     OFFSET 0.000000 9.491660 0.000000
     CHANNELS 3 Yrotation Xrotation Zrotation
     JOINT Neck
     {
      OFFSET 0.000000 14.331917 0.000000
      CHANNELS 3 Yrotation Xrotation Zrotation
      JOINT Head
      {
       OFFSET 0.000000 8.884799 0.017034
       CHANNELS 3 Yrotation Xrotation Zrotation
       End Site
       {
        OFFSET 0.000000 16.896195 0.008993
       }
      }
     }
     JOINT RightCollar
     {
      OFFSET -2.923010 9.499495 0.000000
      CHANNELS 3 Yrotation Xrotation Zrotation
      JOINT RightShoulder
      {
       OFFSET -13.795216 0.000000 0.000000
       CHANNELS 3 Yrotation Xrotation Zrotation
       JOINT RightElbow
       {
        OFFSET -30.272209 0.000000 0.000000
        CHANNELS 3 Yrotation Xrotation Zrotation
        JOINT RightWrist
        {
         OFFSET -24.478199 0.000000 0.000000
         CHANNELS 3 Yrotation Xrotation Zrotation
         End Site
         {
          OFFSET -18.090752 0.000000 0.000000
         }
        }
       }
      }
     }
     JOINT LeftCollar
     {
      OFFSET 2.923010 9.499495 0.000000
      CHANNELS 3 Yrotation Xrotation Zrotation
      JOINT LeftShoulder
      {
       OFFSET 13.795216 0.000000 0.000000
       CHANNELS 3 Yrotation Xrotation Zrotation
       JOINT LeftElbow
       {
        OFFSET 30.272209 0.000000 0.000000
        CHANNELS 3 Yrotation Xrotation Zrotation
        JOINT LeftWrist
        {
         OFFSET 24.478199 0.000000 0.000000
         CHANNELS 3 Yrotation Xrotation Zrotation
         End Site
         {
          OFFSET 18.090752 0.000000 0.000000
         }
        }
       }
      }
     }
    }
   }
  }
 }
 JOINT RightHip
 {
  OFFSET -7.826875 0.019532 0.001973
  CHANNELS 3 Yrotation Xrotation Zrotation
  JOINT RightKnee
  {
   OFFSET 0.000000 -40.546152 -0.001885
   CHANNELS 3 Yrotation Xrotation Zrotation
   JOINT RightAnkle
   {
    OFFSET 0.000000 -39.417092 -0.003189
    CHANNELS 3 Yrotation Xrotation Zrotation
    JOINT RightToe
    {
     OFFSET 0.000000 -7.579396 17.243563
     CHANNELS 3 Yrotation Xrotation Zrotation
     End Site
     {
      OFFSET 0.000000 -1.500329 6.694466
     }
    }
   }
  }
 }
 JOINT LeftHip
 {
  OFFSET 7.826875 0.019532 0.001973
  CHANNELS 3 Yrotation Xrotation Zrotation
  JOINT LeftKnee
  {
   OFFSET 0.000000 -40.546152 -0.001885
   CHANNELS 3 Yrotation Xrotation Zrotation
   JOINT LeftAnkle
   {
    OFFSET 0.000000 -39.417092 -0.003189
    CHANNELS 3 Yrotation Xrotation Zrotation
    JOINT LeftToe
    {
     OFFSET 0.000000 -7.579396 17.243563
     CHANNELS 3 Yrotation Xrotation Zrotation
     End Site
     {
      OFFSET 0.000000 -1.500329 6.694466
     }
    }
   }
  }
 }
}
MOTION
Frames: 16
Frame Time: 0.008333
147.309959 87.003308 -135.560342 125.565234 -12.002514 -1.359163 -1.541003 1.703772 -0.807452 -0.864528 1.103704 -0.309803 -1.081640 1.378889 -0.389871 -0.864525 1.103706 -0.309802 9.948033 29.405399 0.466585 11.137687 7.664740 -1.715695 -7.481758 7.444733 -2.945038 -6.558742 8.955922 93.924470 -2.008490 8.619564 -0.483258 -5.410705 -0.862901 3.109831 -1.984615 -0.551543 -3.131775 1.695172 -13.313651 -84.234018 -14.477247 5.214880 -11.157870 1.012028 5.566210 -1.756894 -8.361918 -7.485340 -12.161995 2.100262 8.285895 -2.378903 0.334857 -2.241231 11.203480 -0.159998 1.637684 0.064224 -2.661791 18.274738 8.583284 1.998143 22.500254 3.052319 1.544192 -13.764093 -15.706078 -0.544229 -14.391137 3.932286
147.990599 86.931096 -135.803775 126.387191 -12.039767 -1.113639 -1.488065 1.662418 -0.840769 -0.849955 1.088417 -0.312170 -1.063416 1.359788 -0.392750 -0.849952 1.088419 -0.312169 10.385896 29.427709 0.517518 11.642492 7.750695 -1.754632 -7.469724 7.410359 -2.903680 -6.588665 8.932748 93.769873 -1.869651 8.534699 -0.436492 -5.204847 -0.924113 2.934230 -1.946639 -0.415043 -3.075642 1.326801 -12.910788 -84.338430 -14.397586 5.617522 -11.334344 1.053409 5.611630 -1.812713 -8.470972 -7.279120 -12.443626 2.113243 8.466464 -2.316175 -0.007888 -2.491681 11.061889 -0.183032 1.214568 0.014199 -2.897767 18.411363 8.601961 1.706404 22.766492 2.960025 1.238763 -13.581510 -15.627131 -0.540947 -15.028319 3.769022
148.697024 86.856559 -136.035593 127.218299 -12.087509 -0.911690 -1.426318 1.618674 -0.828743 -0.835033 1.072617 -0.315177 -1.044757 1.340045 -0.396428 -0.835031 1.072619 -0.315176 10.830372 29.452775 0.569240 12.157553 7.843354 -1.793652 -7.459700 7.361997 -2.860920 -6.637593 8.925663 93.616468 -1.752108 8.424542 -0.403646 -4.996213 -0.982385 2.750834 -1.911765 -0.277180 -3.006150 0.931681 -12.486175 -84.400469 -14.295575 6.023163 -11.472269 1.137850 5.696889 -1.886636 -8.567689 -6.996429 -12.689231 2.232494 8.654972 -2.229062 -0.313139 -2.613539 10.837480 -0.205506 0.706197 0.048639 -3.098326 18.535584 8.701081 1.418155 23.069920 2.871449 0.910238 -13.384785 -15.561941 -0.537737 -15.697747 3.596855
149.432212 86.780926 -136.259503 128.075133 -12.169896 -0.751567 -1.372903 1.594086 -0.778129 -0.819517 1.058363 -0.319117 -1.025359 1.322232 -0.401276 -0.819515 1.058365 -0.319116 11.282421 29.476953 0.621996 12.684005 7.938084 -1.832697 -7.453641 7.292752 -2.818377 -6.689590 8.939028 93.466937 -1.652515 8.284988 -0.378570 -4.785008 -1.049612 2.566645 -1.877306 -0.131180 -2.921505 0.518918 -12.045211 -84.431411 -14.186834 6.439336 -11.568384 1.278827 5.844532 -1.988504 -8.634254 -6.642967 -12.915289 2.481563 8.930267 -2.135957 -0.545922 -2.637705 10.631354 -0.221768 0.125533 0.100875 -3.270835 18.673838 8.874974 1.136614 23.400831 2.795603 0.547286 -13.164162 -15.514876 -0.530394 -16.404419 3.416907
150.197190 86.705870 -136.480498 128.969196 -12.309611 -0.621788 -1.340976 1.606246 -0.706498 -0.804050 1.048000 -0.322953 -1.006026 1.309283 -0.406004 -0.804049 1.048002 -0.322952 11.739916 29.498268 0.673455 13.219967 8.032120 -1.873937 -7.446611 7.196202 -2.772579 -6.737324 8.973001 93.311053 -1.562991 8.116759 -0.357710 -4.567003 -1.129173 2.388229 -1.833768 0.019337 -2.834075 0.103655 -11.590240 -84.427980 -14.073896 6.879531 -11.628855 1.481093 6.060548 -2.117024 -8.625474 -6.243315 -13.153207 2.839242 9.400948 -2.071667 -0.684614 -2.609452 10.728814 -0.212324 -0.516602 -0.017381 -3.431389 18.849014 9.102934 0.860060 23.754434 2.735897 0.152470 -12.909131 -15.482006 -0.519821 -17.155344 3.225603
151.001466 86.635703 -136.705963 129.958487 -12.582081 -0.547860 -1.384548 1.728724 -0.605330 -0.790085 1.043004 -0.326807 -0.988576 1.303043 -0.410771 -0.790085 1.043006 -0.326807 12.197517 29.515009 0.722647 13.759326 8.122439 -1.917312 -7.433413 7.070467 -2.712167 -6.779888 9.024520 93.138424 -1.488048 7.926024 -0.341489 -4.340018 -1.221442 2.215794 -1.779342 0.166194 -2.746649 -0.281969 -11.116230 -84.393887 -13.953248 7.356657 -11.659633 1.729777 6.337555 -2.260254 -8.555340 -5.719410 -13.397084 3.296838 10.116473 -2.036149 -0.834889 -2.577437 11.280941 -0.085872 -1.191772 -0.383815 -3.639988 19.134273 9.389038 0.581565 24.136329 2.688570 -0.260862 -12.612791 -15.458243 -0.505729 -17.958333 3.017281
151.810625 86.565195 -136.924289 130.885161 -12.787634 -0.431513 -1.355085 1.759018 -0.536554 -0.778378 1.043539 -0.330421 -0.973952 1.303715 -0.415256 -0.778378 1.043541 -0.330421 12.653119 29.526786 0.769284 14.299669 8.208219 -1.962724 -7.406852 6.915228 -2.627801 -6.812458 9.098463 92.947094 -1.431920 7.712793 -0.334382 -4.106960 -1.322392 2.049871 -1.712513 0.304048 -2.653682 -0.605562 -10.612244 -84.345967 -13.821433 7.879543 -11.661031 2.014533 6.657196 -2.404189 -8.276417 -5.260476 -13.746039 3.907382 10.900788 -1.937466 -0.931964 -2.508330 12.196187 -0.035114 -1.815193 -0.908383 -3.767159 19.313558 9.671370 0.283119 24.554505 2.645103 -0.681930 -12.263023 -15.431753 -0.485704 -18.823136 2.788387
152.641846 86.500953 -137.139840 131.807605 -13.033216 -0.346925 -1.315773 1.799890 -0.447315 -0.769207 1.051322 -0.331898 -0.962501 1.313448 -0.417094 -0.769209 1.051323 -0.331899 13.111385 29.534983 0.813028 14.846871 8.292086 -2.011544 -7.357626 6.726636 -2.516325 -6.827169 9.199557 92.731758 -1.393570 7.472891 -0.337432 -3.863009 -1.422816 1.886552 -1.626503 0.430594 -2.558781 -0.853479 -10.077625 -84.285414 -13.663630 8.447343 -11.634391 2.316620 6.991053 -2.534526 -7.922099 -4.687871 -14.089824 4.637870 11.626486 -1.710774 -1.181174 -2.362689 12.924366 -0.013325 -2.342355 -1.231439 -3.857578 19.490304 10.007523 -0.049305 25.022591 2.600290 -1.104561 -11.854388 -15.404605 -0.460058 -19.761912 2.540828
153.496309 86.447021 -137.355840 132.722344 -13.348929 -0.306642 -1.279852 1.867077 -0.329634 -0.761168 1.072269 -0.330150 -0.952468 1.339643 -0.414931 -0.761172 1.072270 -0.330152 13.579210 29.538432 0.852366 15.409864 8.373796 -2.067010 -7.280927 6.496209 -2.365733 -6.813757 9.324400 92.478165 -1.383107 7.210005 -0.347722 -3.601833 -1.522918 1.716602 -1.516111 0.535854 -2.468578 -1.026064 -9.525691 -84.201602 -13.465182 9.040083 -11.583893 2.605108 7.308341 -2.632414 -7.526588 -4.015000 -14.338661 5.319556 12.388484 -1.440484 -1.609738 -2.321314 13.283665 -0.070103 -2.641340 -1.267788 -3.922624 19.686853 10.396690 -0.405610 25.560286 2.559942 -1.524809 -11.369904 -15.376658 -0.434832 -20.799949 2.273189
154.366720 86.407100 -137.582560 133.616012 -13.758980 -0.262022 -1.251775 1.971985 -0.239432 -0.753676 1.111939 -0.322436 -0.943121 1.389253 -0.405349 -0.753683 1.111941 -0.322438 14.060014 29.534181 0.881091 15.994583 8.450570 -2.137032 -7.170556 6.213063 -2.173192 -6.750059 9.466403 92.182549 -1.416806 6.924221 -0.365290 -3.321356 -1.625249 1.539168 -1.376026 0.617095 -2.400696 -1.123888 -8.972945 -84.082565 -13.199273 9.636758 -11.500668 2.858058 7.574475 -2.674870 -7.097449 -3.235600 -14.504250 5.731237 13.195322 -1.254179 -2.113756 -2.398152 13.457906 -0.146710 -2.747049 -1.177299 -3.988813 19.909787 10.765944 -0.765317 26.192415 2.534035 -1.956620 -10.781728 -15.330439 -0.401034 -21.974734 1.974676
155.240374 86.382325 -137.823050 134.481841 -14.236827 -0.178853 -1.229177 2.094530 -0.221449 -0.746907 1.166807 -0.303604 -0.934652 1.457882 -0.381902 -0.746915 1.166809 -0.303607 14.542557 29.524527 0.887812 16.590363 8.524432 -2.232303 -7.034753 5.884782 -1.954288 -6.607031 9.613044 91.852686 -1.502318 6.609962 -0.393123 -3.019048 -1.727469 1.358721 -1.216593 0.695794 -2.378063 -1.135402 -8.435013 -83.920568 -12.843522 10.222880 -11.366698 3.056639 7.766344 -2.646459 -6.713114 -2.382045 -14.668485 5.768053 13.974016 -1.132491 -2.512604 -2.508160 13.569395 -0.158290 -2.783756 -1.083093 -4.073768 20.109706 11.064600 -1.119719 26.949361 2.529198 -2.412986 -10.081400 -15.242840 -0.340110 -23.305360 1.627521
156.116128 86.372226 -138.066180 135.318164 -14.744672 -0.131969 -1.200143 2.224565 -0.200680 -0.739191 1.225652 -0.269672 -0.924948 1.531515 -0.339581 -0.739200 1.225655 -0.269675 15.004529 29.519148 0.864729 17.171911 8.604942 -2.357005 -6.895511 5.546861 -1.728973 -6.369929 9.737655 91.499018 -1.640697 6.262964 -0.436164 -2.702291 -1.821981 1.179223 -1.064841 0.806968 -2.406411 -1.047543 -7.928600 -83.723895 -12.393865 10.780190 -11.166224 3.188295 7.882478 -2.548429 -6.470560 -1.518192 -14.812259 5.573363 14.751699 -0.962151 -2.761249 -2.788897 13.568339 -0.132967 -2.703376 -0.985020 -4.136991 20.226091 11.370767 -1.476443 27.868997 2.558185 -2.869628 -9.269442 -15.105245 -0.265613 -24.795444 1.209033
156.983943 86.373987 -138.307348 136.129995 -15.227185 -0.127243 -1.162716 2.336938 -0.166221 -0.729155 1.278576 -0.219955 -0.912271 1.597777 -0.277504 -0.729162 1.278581 -0.219957 15.436224 29.527088 0.816640 17.726000 8.702024 -2.503547 -6.758488 5.252286 -1.517462 -6.047513 9.790668 91.137105 -1.825936 5.894015 -0.499894 -2.393875 -1.905359 1.006561 -0.942623 0.980448 -2.464453 -0.857231 -7.464637 -83.520249 -11.860606 11.285489 -10.881903 3.251281 7.930171 -2.392487 -6.370718 -0.659740 -14.922430 5.375993 15.433131 -0.735431 -3.006645 -3.116464 13.462594 -0.091401 -2.592348 -0.865464 -4.163494 20.177196 11.687294 -1.838245 28.988942 2.645103 -3.336779 -8.356370 -14.943259 -0.167854 -26.448491 0.731714
157.842730 86.384973 -138.543255 136.914445 -15.666600 -0.191684 -1.106366 2.437855 -0.080920 -0.716916 1.321093 -0.157449 -0.896776 1.651053 -0.199408 -0.716923 1.321099 -0.157451 15.842217 29.549725 0.757037 18.254525 8.817163 -2.657422 -6.623197 5.046949 -1.338156 -5.663388 9.723518 90.783585 -2.043814 5.536261 -0.585942 -2.125166 -1.978117 0.846125 -0.864226 1.216545 -2.512093 -0.567201 -7.034458 -83.351001 -11.267939 11.717794 -10.501868 3.248985 7.924839 -2.185454 -6.326085 0.216224 -14.916378 5.213545 16.015953 -0.548020 -3.325125 -3.552058 13.371121 -0.063216 -2.409162 -0.770896 -4.150512 19.931588 12.024462 -2.195319 30.329743 2.808967 -3.784665 -7.321941 -14.772999 -0.061457 -28.279506 0.195088
158.689393 86.401699 -138.774581 137.681419 -16.046739 -0.318435 -1.031070 2.528484 0.057028 -0.704000 1.351017 -0.087754 -0.880388 1.688599 -0.112295 -0.704006 1.351024 -0.087755 16.228136 29.582118 0.700295 18.760232 8.943378 -2.803336 -6.500336 4.933754 -1.200851 -5.244315 9.533861 90.446952 -2.273573 5.220893 -0.692665 -1.926053 -2.028794 0.700749 -0.828625 1.491088 -2.509615 -0.193893 -6.611304 -83.253308 -10.638117 12.062615 -10.019037 3.186318 7.883509 -1.924827 -6.311024 1.119244 -14.788935 5.033858 16.462797 -0.434509 -3.677745 -4.046261 13.320243 -0.037916 -2.188370 -0.707219 -4.136019 19.474983 12.353434 -2.536688 31.890686 3.046287 -4.174772 -6.166044 -14.590835 0.055303 -30.276833 -0.414647
159.524574 86.420659 -139.000871 138.443797 -16.356262 -0.508994 -0.942334 2.611221 0.256165 -0.692142 1.366575 -0.016367 -0.865302 1.708184 -0.023041 -0.692145 1.366581 -0.016367 16.592770 29.617318 0.653405 19.239034 9.070127 -2.933095 -6.409004 4.866185 -1.109251 -4.817441 9.274277 90.127778 -2.489390 4.969215 -0.816968 -1.814224 -2.048480 0.567670 -0.822563 1.776110 -2.434659 0.233441 -6.171825 -83.248380 -9.982868 12.308395 -9.426312 3.070417 7.822257 -1.612210 -6.375232 2.043562 -14.546509 4.844905 16.739217 -0.388187 -4.026861 -4.565975 13.279781 -0.008370 -1.945518 -0.656091 -4.147982 18.810657 12.673891 -2.855438 33.651012 3.332234 -4.484820 -4.889247 -14.380004 0.193167 -32.422830 -1.118258
